<mxfile host="app.diagrams.net" modified="2025-05-21T08:09:02.777Z" agent="Mozilla/5.0 (Windows NT 10.0; Win64; x64) AppleWebKit/537.36 (KHTML, like Gecko) Chrome/136.0.0.0 Safari/537.36 Edg/136.0.0.0" etag="HEJN7_BjTZk2-uz50Bgf" version="24.4.13" type="github">
  <diagram name="第 1 页" id="Gk6qp4RGhQGHQJ4mW8Kz">
    <mxGraphModel dx="827" dy="563" grid="1" gridSize="10" guides="1" tooltips="1" connect="1" arrows="1" fold="1" page="1" pageScale="1" pageWidth="1100" pageHeight="850" background="#FFFFFF" math="0" shadow="0">
      <root>
        <mxCell id="0" />
        <mxCell id="1" parent="0" />
        <mxCell id="aN0-QjsyH1Zt1_fyEIz_-23" value="" style="edgeStyle=orthogonalEdgeStyle;rounded=0;orthogonalLoop=1;jettySize=auto;html=1;" edge="1" parent="1" source="aN0-QjsyH1Zt1_fyEIz_-1" target="aN0-QjsyH1Zt1_fyEIz_-11">
          <mxGeometry relative="1" as="geometry" />
        </mxCell>
        <mxCell id="aN0-QjsyH1Zt1_fyEIz_-24" value="" style="edgeStyle=orthogonalEdgeStyle;rounded=0;orthogonalLoop=1;jettySize=auto;html=1;" edge="1" parent="1" source="aN0-QjsyH1Zt1_fyEIz_-1" target="aN0-QjsyH1Zt1_fyEIz_-10">
          <mxGeometry relative="1" as="geometry" />
        </mxCell>
        <mxCell id="aN0-QjsyH1Zt1_fyEIz_-25" value="" style="edgeStyle=orthogonalEdgeStyle;rounded=0;orthogonalLoop=1;jettySize=auto;html=1;" edge="1" parent="1" source="aN0-QjsyH1Zt1_fyEIz_-1" target="aN0-QjsyH1Zt1_fyEIz_-12">
          <mxGeometry relative="1" as="geometry" />
        </mxCell>
        <mxCell id="aN0-QjsyH1Zt1_fyEIz_-26" value="" style="edgeStyle=orthogonalEdgeStyle;rounded=0;orthogonalLoop=1;jettySize=auto;html=1;" edge="1" parent="1" source="aN0-QjsyH1Zt1_fyEIz_-1" target="aN0-QjsyH1Zt1_fyEIz_-14">
          <mxGeometry relative="1" as="geometry" />
        </mxCell>
        <mxCell id="aN0-QjsyH1Zt1_fyEIz_-1" value="用户" style="ellipse;whiteSpace=wrap;html=1;" vertex="1" parent="1">
          <mxGeometry x="370" y="210" width="90" height="60" as="geometry" />
        </mxCell>
        <mxCell id="aN0-QjsyH1Zt1_fyEIz_-3" value="用户名" style="shape=hexagon;perimeter=hexagonPerimeter2;whiteSpace=wrap;html=1;fixedSize=1;" vertex="1" parent="1">
          <mxGeometry x="250" y="170" width="80" height="50" as="geometry" />
        </mxCell>
        <mxCell id="aN0-QjsyH1Zt1_fyEIz_-9" value="密码" style="shape=hexagon;perimeter=hexagonPerimeter2;whiteSpace=wrap;html=1;fixedSize=1;" vertex="1" parent="1">
          <mxGeometry x="330" y="110" width="80" height="50" as="geometry" />
        </mxCell>
        <mxCell id="aN0-QjsyH1Zt1_fyEIz_-10" value="邮箱" style="shape=hexagon;perimeter=hexagonPerimeter2;whiteSpace=wrap;html=1;fixedSize=1;" vertex="1" parent="1">
          <mxGeometry x="450" y="110" width="80" height="50" as="geometry" />
        </mxCell>
        <mxCell id="aN0-QjsyH1Zt1_fyEIz_-11" value="头像" style="shape=hexagon;perimeter=hexagonPerimeter2;whiteSpace=wrap;html=1;fixedSize=1;" vertex="1" parent="1">
          <mxGeometry x="250" y="250" width="80" height="50" as="geometry" />
        </mxCell>
        <mxCell id="aN0-QjsyH1Zt1_fyEIz_-12" value="用户状态" style="shape=hexagon;perimeter=hexagonPerimeter2;whiteSpace=wrap;html=1;fixedSize=1;" vertex="1" parent="1">
          <mxGeometry x="380" y="310" width="80" height="50" as="geometry" />
        </mxCell>
        <mxCell id="aN0-QjsyH1Zt1_fyEIz_-13" value="管理员" style="shape=hexagon;perimeter=hexagonPerimeter2;whiteSpace=wrap;html=1;fixedSize=1;" vertex="1" parent="1">
          <mxGeometry x="510" y="270" width="80" height="50" as="geometry" />
        </mxCell>
        <mxCell id="aN0-QjsyH1Zt1_fyEIz_-14" value="普通用户" style="shape=hexagon;perimeter=hexagonPerimeter2;whiteSpace=wrap;html=1;fixedSize=1;" vertex="1" parent="1">
          <mxGeometry x="510" y="180" width="80" height="50" as="geometry" />
        </mxCell>
        <mxCell id="aN0-QjsyH1Zt1_fyEIz_-27" value="" style="endArrow=classic;html=1;rounded=0;exitX=1;exitY=1;exitDx=0;exitDy=0;" edge="1" parent="1" source="aN0-QjsyH1Zt1_fyEIz_-1" target="aN0-QjsyH1Zt1_fyEIz_-13">
          <mxGeometry width="50" height="50" relative="1" as="geometry">
            <mxPoint x="460" y="300" as="sourcePoint" />
            <mxPoint x="510" y="250" as="targetPoint" />
          </mxGeometry>
        </mxCell>
        <mxCell id="aN0-QjsyH1Zt1_fyEIz_-29" value="" style="endArrow=classic;html=1;rounded=0;entryX=0.625;entryY=1;entryDx=0;entryDy=0;exitX=0.237;exitY=0.054;exitDx=0;exitDy=0;exitPerimeter=0;" edge="1" parent="1" source="aN0-QjsyH1Zt1_fyEIz_-1" target="aN0-QjsyH1Zt1_fyEIz_-9">
          <mxGeometry width="50" height="50" relative="1" as="geometry">
            <mxPoint x="370" y="230" as="sourcePoint" />
            <mxPoint x="420" y="180" as="targetPoint" />
          </mxGeometry>
        </mxCell>
        <mxCell id="aN0-QjsyH1Zt1_fyEIz_-30" value="" style="endArrow=classic;html=1;rounded=0;entryX=0.625;entryY=1;entryDx=0;entryDy=0;exitX=0.058;exitY=0.366;exitDx=0;exitDy=0;exitPerimeter=0;" edge="1" parent="1" source="aN0-QjsyH1Zt1_fyEIz_-1" target="aN0-QjsyH1Zt1_fyEIz_-3">
          <mxGeometry width="50" height="50" relative="1" as="geometry">
            <mxPoint x="210" y="290" as="sourcePoint" />
            <mxPoint x="260" y="240" as="targetPoint" />
          </mxGeometry>
        </mxCell>
      </root>
    </mxGraphModel>
  </diagram>
</mxfile>
